<svg width="1199" height="252" viewBox="0 0 1199 252" fill="none" xmlns="http://www.w3.org/2000/svg">
<path d="M50 5H210C234.853 5.00001 255 25.1472 255 50V79.4883C255 104.341 234.853 124.488 210 124.488H50C25.1472 124.488 5.00005 104.341 5 79.4883V50C5 25.1472 25.1472 5 50 5Z" stroke="#020202" stroke-width="10"/>
<path d="M77 134.488H194C227.689 134.488 255 161.799 255 195.488V241.591H16V195.488C16 161.799 43.3106 134.488 77 134.488Z" stroke="black" stroke-width="10"/>
<ellipse cx="60.5" cy="64.7441" rx="18.5" ry="20.8307" fill="black"/>
<ellipse cx="201.5" cy="64.7441" rx="18.5" ry="20.8307" fill="black"/>
<path d="M384 237.8C378.267 241.4 372.067 244.133 365.4 246C358.733 247.733 352.4 248.6 346.4 248.6C335.2 248.733 324.933 246 315.6 240.4C306.267 234.8 298.8 226.8 293.2 216.4C287.733 205.867 285 193.4 285 179C285 168.2 286.6 158.533 289.8 150C293.133 141.333 297.667 134 303.4 128C309.133 121.867 315.733 117.267 323.2 114.2C330.8 111 338.8 109.4 347.2 109.4C353.067 109.4 359.2 110.2 365.6 111.8C372.133 113.4 378.2 116 383.8 119.6C386.6 121.467 388.2 123.6 388.6 126C389.133 128.4 388.733 130.6 387.4 132.6C386.2 134.6 384.4 135.933 382 136.6C379.6 137.267 377 136.667 374.2 134.8C370.067 132.133 365.6 130.267 360.8 129.2C356 128 351.467 127.4 347.2 127.4C338.8 127.4 331.267 129.467 324.6 133.6C317.933 137.733 312.667 143.667 308.8 151.4C304.933 159.133 303 168.333 303 179C303 187 304.067 194.2 306.2 200.6C308.333 207 311.333 212.467 315.2 217C319.2 221.4 323.8 224.8 329 227.2C334.333 229.467 340.133 230.6 346.4 230.6C350.667 230.6 355.267 230 360.2 228.8C365.267 227.467 369.867 225.4 374 222.6C376.933 220.733 379.6 220.133 382 220.8C384.4 221.333 386.2 222.6 387.4 224.6C388.733 226.6 389.2 228.867 388.8 231.4C388.4 233.8 386.8 235.933 384 237.8ZM409.922 239C409.922 236.2 409.922 233.2 409.922 230C409.922 226.8 409.922 223.6 409.922 220.4C409.922 217.2 409.922 214.2 409.922 211.4C409.922 200.733 409.922 189.067 409.922 176.4C409.922 163.733 409.922 149.467 409.922 133.6C409.922 130 409.922 125.8 409.922 121C409.922 116.2 409.922 111.867 409.922 108C409.922 104.667 410.789 102.133 412.522 100.4C414.389 98.6667 416.522 97.8 418.922 97.8C421.322 97.8 423.389 98.6667 425.122 100.4C426.989 102.133 427.922 104.667 427.922 108C427.922 111.2 427.922 114.2 427.922 117C427.922 119.667 427.922 122.4 427.922 125.2C427.922 127.867 427.922 130.667 427.922 133.6C427.922 140.667 427.922 148.2 427.922 156.2C427.922 164.2 427.922 172.8 427.922 182C427.922 191.067 427.922 200.867 427.922 211.4C427.922 214.733 427.922 217.867 427.922 220.8C427.922 223.733 427.922 226.667 427.922 229.6C427.922 232.533 427.922 235.667 427.922 239C427.922 242.333 426.989 244.867 425.122 246.6C423.389 248.333 421.322 249.2 418.922 249.2C416.522 249.2 414.389 248.333 412.522 246.6C410.789 244.867 409.922 242.333 409.922 239ZM484.811 247.2C479.211 245.2 474.278 242.733 470.011 239.8C465.878 236.733 462.211 232.8 459.011 228C456.211 223.867 454.011 219.2 452.411 214C450.811 208.8 450.011 203.2 450.011 197.2C450.011 187.2 452.144 178.333 456.411 170.6C460.811 162.733 466.744 156.6 474.211 152.2C481.811 147.667 490.344 145.4 499.811 145.4C509.411 145.4 517.944 147.667 525.411 152.2C533.011 156.6 538.944 162.733 543.211 170.6C547.611 178.333 549.811 187.2 549.811 197.2C549.811 203.067 549.011 208.6 547.411 213.8C545.944 218.867 543.744 223.533 540.811 227.8C537.611 232.733 533.944 236.667 529.811 239.6C525.678 242.533 520.611 245.067 514.611 247.2C511.544 248.267 508.878 248.2 506.611 247C504.478 245.8 503.011 244.067 502.211 241.8C501.411 239.533 501.544 237.333 502.611 235.2C503.678 232.933 505.811 231.2 509.011 230C513.011 228.667 516.278 227.133 518.811 225.4C521.344 223.533 523.744 221 526.011 217.8C527.878 215 529.278 211.867 530.211 208.4C531.278 204.933 531.811 201.2 531.811 197.2C531.811 190.667 530.411 184.867 527.611 179.8C524.944 174.6 521.211 170.6 516.411 167.8C511.611 164.867 506.078 163.4 499.811 163.4C493.544 163.4 488.011 164.867 483.211 167.8C478.411 170.6 474.678 174.6 472.011 179.8C469.344 184.867 468.011 190.667 468.011 197.2C468.011 201.2 468.478 205 469.411 208.6C470.478 212.067 471.944 215.2 473.811 218C475.278 220.133 476.811 221.933 478.411 223.4C480.144 224.867 482.011 226.133 484.011 227.2C486.011 228.267 488.211 229.2 490.611 230C493.811 231.2 495.944 232.933 497.011 235.2C498.078 237.333 498.211 239.533 497.411 241.8C496.611 244.067 495.078 245.8 492.811 247C490.678 248.2 488.011 248.267 484.811 247.2ZM641.841 239C641.841 236.2 641.841 233.267 641.841 230.2C641.841 227 641.841 223.867 641.841 220.8C641.841 217.6 641.841 214.667 641.841 212C641.841 208.8 641.841 205.267 641.841 201.4C641.841 197.4 641.841 193.067 641.841 188.4C641.841 182.8 640.907 178.2 639.041 174.6C637.307 170.867 634.707 168.067 631.241 166.2C627.774 164.333 623.507 163.4 618.441 163.4C614.041 163.4 610.041 164.133 606.441 165.6C602.841 166.933 599.707 168.933 597.041 171.6C594.507 174.267 592.507 177.6 591.041 181.6C589.574 185.6 588.841 190.2 588.841 195.4C588.841 197.667 588.841 200.667 588.841 204.4C588.841 208 588.841 211.867 588.841 216C588.841 220.133 588.841 224.267 588.841 228.4C588.841 232.4 588.841 235.933 588.841 239C588.841 241.667 588.241 243.867 587.041 245.6C585.841 247.2 584.307 248.267 582.441 248.8C580.707 249.333 578.907 249.333 577.041 248.8C575.307 248.267 573.841 247.2 572.641 245.6C571.441 243.867 570.841 241.667 570.841 239C570.841 236.467 570.841 233.067 570.841 228.8C570.841 224.4 570.841 219.667 570.841 214.6C570.841 209.4 570.841 204.4 570.841 199.6C570.841 194.667 570.841 190.4 570.841 186.8C570.841 183.2 570.841 180.733 570.841 179.4C570.841 176.733 570.841 174.067 570.841 171.4C570.841 168.733 570.841 166.067 570.841 163.4C570.841 160.733 570.841 158.067 570.841 155.4C570.841 152.067 571.707 149.533 573.441 147.8C575.307 146.067 577.441 145.2 579.841 145.2C582.241 145.2 584.307 146.067 586.041 147.8C587.907 149.533 588.841 152.067 588.841 155.4C588.841 158.333 588.841 161.067 588.841 163.6C588.841 166.133 588.841 168.667 588.841 171.2C588.841 173.733 588.841 176.467 588.841 179.4C588.841 180.2 588.841 182.4 588.841 186C588.841 189.467 588.841 193.733 588.841 198.8C588.841 203.733 588.841 208.867 588.841 214.2C588.841 219.4 588.841 224.267 588.841 228.8C588.841 233.2 588.841 236.6 588.841 239C588.841 241.667 588.241 243.867 587.041 245.6C585.841 247.2 584.307 248.267 582.441 248.8C580.707 249.333 578.907 249.333 577.041 248.8C575.307 248.267 573.841 247.2 572.641 245.6C571.441 243.867 570.841 241.667 570.841 239C570.841 235.933 570.841 232.733 570.841 229.4C570.841 225.933 570.841 222.4 570.841 218.8C570.841 215.2 570.841 211.6 570.841 208C570.841 204.267 570.841 200.733 570.841 197.4C570.841 190.6 572.041 184.067 574.441 177.8C576.974 171.533 580.441 166 584.841 161.2C589.241 156.267 594.441 152.4 600.441 149.6C606.441 146.8 612.907 145.4 619.841 145.4C625.574 145.4 630.841 146.333 635.641 148.2C640.574 150.067 644.841 152.867 648.441 156.6C652.041 160.2 654.841 164.667 656.841 170C658.841 175.333 659.841 181.467 659.841 188.4C659.841 191.467 659.841 195 659.841 199C659.841 202.867 659.841 207.2 659.841 212C659.841 215.333 659.841 218.467 659.841 221.4C659.841 224.2 659.841 227 659.841 229.8C659.841 232.6 659.841 235.667 659.841 239C659.841 242.333 658.907 244.867 657.041 246.6C655.307 248.333 653.241 249.2 650.841 249.2C648.441 249.2 646.307 248.333 644.441 246.6C642.707 244.867 641.841 242.333 641.841 239ZM705.313 188.2C709.179 188.2 713.313 188.2 717.713 188.2C722.113 188.2 726.579 188.2 731.113 188.2C735.779 188.2 740.313 188.2 744.713 188.2C746.313 188.2 747.713 188.267 748.913 188.4C750.246 188.4 751.246 188.333 751.913 188.2C752.713 187.933 753.246 187.533 753.513 187C753.913 186.467 753.979 185.533 753.713 184.2C752.779 179.933 751.113 176.267 748.713 173.2C746.446 170 743.513 167.6 739.913 166C736.313 164.267 732.246 163.4 727.713 163.4C721.713 163.4 716.379 164.8 711.713 167.6C707.179 170.4 703.579 174.4 700.913 179.6C698.379 184.667 697.113 190.6 697.113 197.4C697.113 204.6 698.513 210.733 701.313 215.8C704.113 220.867 707.913 224.733 712.713 227.4C717.646 229.933 723.246 231.2 729.513 231.2C732.313 231.2 735.246 230.933 738.313 230.4C741.379 229.733 744.446 228.8 747.513 227.6C750.713 226.4 753.913 224.933 757.113 223.2C760.046 221.467 762.646 221 764.913 221.8C767.313 222.6 769.113 224.067 770.313 226.2C771.513 228.2 771.779 230.4 771.113 232.8C770.579 235.2 768.846 237.2 765.913 238.8C761.779 241.2 757.646 243.2 753.513 244.8C749.379 246.267 745.246 247.333 741.113 248C737.113 248.8 733.246 249.2 729.513 249.2C720.179 249.2 711.713 247.133 704.113 243C696.513 238.867 690.446 232.933 685.913 225.2C681.379 217.467 679.113 208.2 679.113 197.4C679.113 187 681.246 177.933 685.513 170.2C689.779 162.333 695.579 156.267 702.913 152C710.246 147.6 718.513 145.4 727.713 145.4C735.046 145.4 741.779 146.867 747.913 149.8C754.046 152.733 759.113 156.867 763.113 162.2C767.246 167.4 769.979 173.667 771.312 181C772.113 185.133 772.246 188.8 771.713 192C771.179 195.2 769.846 197.867 767.713 200C765.579 202 762.579 203.533 758.713 204.6C754.979 205.667 750.313 206.2 744.713 206.2C740.446 206.2 736.513 206.2 732.913 206.2C729.313 206.2 725.913 206.2 722.712 206.2C719.646 206.2 716.646 206.2 713.713 206.2C710.913 206.2 708.113 206.2 705.313 206.2C701.979 206.2 699.446 205.333 697.712 203.6C695.979 201.733 695.113 199.6 695.113 197.2C695.113 194.8 695.979 192.733 697.712 191C699.446 189.133 701.979 188.2 705.313 188.2ZM861.083 190C858.149 190 854.149 190 849.083 190C844.149 190 839.149 190 834.083 190C829.016 190 824.749 190 821.283 190C819.283 190 817.816 190.333 816.883 191C815.949 191.533 815.349 192.6 815.083 194.2C814.949 195.667 814.883 197.733 814.883 200.4C814.883 202.133 814.883 204.467 814.883 207.4C814.883 210.2 814.883 213.4 814.883 217C814.883 220.467 814.883 224.133 814.883 228C814.883 231.733 814.883 235.4 814.883 239C814.883 241.667 814.283 243.867 813.083 245.6C811.883 247.2 810.349 248.267 808.483 248.8C806.749 249.333 804.949 249.333 803.083 248.8C801.349 248.267 799.883 247.2 798.683 245.6C797.483 243.867 796.883 241.667 796.883 239C796.883 236.067 796.883 231.867 796.883 226.4C796.883 220.933 796.883 214.8 796.883 208C796.883 201.067 796.883 194 796.883 186.8C796.883 179.467 796.883 172.467 796.883 165.8C796.883 159.133 796.883 153.267 796.883 148.2C796.883 143.133 796.883 139.4 796.883 137C796.883 131.267 797.683 126.467 799.283 122.6C801.016 118.733 803.749 115.867 807.483 114C811.349 112 816.483 111 822.883 111C825.283 111 828.683 111 833.083 111C837.616 111 842.683 111 848.283 111C854.016 111 859.749 111 865.483 111C868.816 111 871.283 111.933 872.883 113.8C874.616 115.533 875.483 117.6 875.483 120C875.483 122.4 874.616 124.533 872.883 126.4C871.283 128.133 868.816 129 865.483 129C861.616 129 857.016 129 851.683 129C846.349 129 841.083 129 835.883 129C830.683 129 826.349 129 822.883 129C820.216 129 818.283 129.2 817.083 129.6C816.016 129.867 815.349 130.6 815.083 131.8C814.949 132.867 814.883 134.6 814.883 137C814.883 141.267 814.883 146.733 814.883 153.4C814.883 159.933 814.883 167.067 814.883 174.8C814.883 182.533 814.883 190.4 814.883 198.4C814.883 206.267 814.883 213.733 814.883 220.8C814.883 227.867 814.883 233.933 814.883 239C814.883 241.667 814.283 243.867 813.083 245.6C811.883 247.2 810.349 248.267 808.483 248.8C806.749 249.333 804.949 249.333 803.083 248.8C801.349 248.267 799.883 247.2 798.683 245.6C797.483 243.867 796.883 241.667 796.883 239C796.883 236.6 796.883 233.867 796.883 230.8C796.883 227.6 796.883 224.333 796.883 221C796.883 217.533 796.883 214.2 796.883 211C796.883 207.8 796.883 204.933 796.883 202.4C796.883 197.333 797.416 192.933 798.483 189.2C799.549 185.333 801.083 182.133 803.083 179.6C805.083 177.067 807.616 175.2 810.683 174C813.749 172.667 817.283 172 821.283 172C826.483 172 831.216 172 835.483 172C839.883 172 844.149 172 848.283 172C852.416 172 856.683 172 861.083 172C864.416 172 866.883 172.933 868.483 174.8C870.216 176.533 871.083 178.6 871.083 181C871.083 183.4 870.216 185.533 868.483 187.4C866.883 189.133 864.416 190 861.083 190ZM895.469 239C895.469 236.2 895.469 233.2 895.469 230C895.469 226.8 895.469 223.6 895.469 220.4C895.469 217.2 895.469 214.2 895.469 211.4C895.469 200.733 895.469 189.067 895.469 176.4C895.469 163.733 895.469 149.467 895.469 133.6C895.469 130 895.469 125.8 895.469 121C895.469 116.2 895.469 111.867 895.469 108C895.469 104.667 896.335 102.133 898.069 100.4C899.935 98.6667 902.069 97.8 904.469 97.8C906.869 97.8 908.935 98.6667 910.669 100.4C912.535 102.133 913.469 104.667 913.469 108C913.469 111.2 913.469 114.2 913.469 117C913.469 119.667 913.469 122.4 913.469 125.2C913.469 127.867 913.469 130.667 913.469 133.6C913.469 140.667 913.469 148.2 913.469 156.2C913.469 164.2 913.469 172.8 913.469 182C913.469 191.067 913.469 200.867 913.469 211.4C913.469 214.733 913.469 217.867 913.469 220.8C913.469 223.733 913.469 226.667 913.469 229.6C913.469 232.533 913.469 235.667 913.469 239C913.469 242.333 912.535 244.867 910.669 246.6C908.935 248.333 906.869 249.2 904.469 249.2C902.069 249.2 899.935 248.333 898.069 246.6C896.335 244.867 895.469 242.333 895.469 239ZM970.358 247.2C964.758 245.2 959.824 242.733 955.558 239.8C951.424 236.733 947.758 232.8 944.558 228C941.758 223.867 939.558 219.2 937.958 214C936.358 208.8 935.558 203.2 935.558 197.2C935.558 187.2 937.691 178.333 941.958 170.6C946.358 162.733 952.291 156.6 959.758 152.2C967.358 147.667 975.891 145.4 985.358 145.4C994.958 145.4 1003.49 147.667 1010.96 152.2C1018.56 156.6 1024.49 162.733 1028.76 170.6C1033.16 178.333 1035.36 187.2 1035.36 197.2C1035.36 203.067 1034.56 208.6 1032.96 213.8C1031.49 218.867 1029.29 223.533 1026.36 227.8C1023.16 232.733 1019.49 236.667 1015.36 239.6C1011.22 242.533 1006.16 245.067 1000.16 247.2C997.091 248.267 994.424 248.2 992.158 247C990.024 245.8 988.558 244.067 987.758 241.8C986.958 239.533 987.091 237.333 988.158 235.2C989.224 232.933 991.358 231.2 994.558 230C998.558 228.667 1001.82 227.133 1004.36 225.4C1006.89 223.533 1009.29 221 1011.56 217.8C1013.42 215 1014.82 211.867 1015.76 208.4C1016.82 204.933 1017.36 201.2 1017.36 197.2C1017.36 190.667 1015.96 184.867 1013.16 179.8C1010.49 174.6 1006.76 170.6 1001.96 167.8C997.158 164.867 991.624 163.4 985.358 163.4C979.091 163.4 973.558 164.867 968.758 167.8C963.958 170.6 960.224 174.6 957.558 179.8C954.891 184.867 953.558 190.667 953.558 197.2C953.558 201.2 954.024 205 954.958 208.6C956.024 212.067 957.491 215.2 959.358 218C960.824 220.133 962.358 221.933 963.958 223.4C965.691 224.867 967.558 226.133 969.558 227.2C971.558 228.267 973.758 229.2 976.158 230C979.358 231.2 981.491 232.933 982.558 235.2C983.624 237.333 983.758 239.533 982.958 241.8C982.158 244.067 980.624 245.8 978.358 247C976.224 248.2 973.558 248.267 970.358 247.2ZM1063.63 152.4C1065.1 156.533 1066.57 160.733 1068.03 165C1069.63 169.267 1071.1 173.533 1072.43 177.8C1073.63 181.133 1074.83 184.733 1076.03 188.6C1077.37 192.333 1078.63 195.933 1079.83 199.4C1081.03 202.733 1081.97 205.467 1082.63 207.6C1082.9 208.4 1083.17 209.133 1083.43 209.8C1083.7 210.467 1083.9 211.067 1084.03 211.6C1084.17 212 1084.3 212.4 1084.43 212.8C1084.57 213.2 1084.7 213.533 1084.83 213.8C1085.1 214.333 1085.3 214.8 1085.43 215.2C1085.57 215.6 1085.63 215.867 1085.63 216C1085.77 216.133 1085.9 216.133 1086.03 216C1086.17 215.867 1086.3 215.6 1086.43 215.2C1086.57 214.8 1086.77 214.267 1087.03 213.6C1087.17 213.333 1087.3 213 1087.43 212.6C1087.57 212.067 1087.7 211.533 1087.83 211C1088.1 210.333 1088.3 209.667 1088.43 209C1088.7 208.333 1088.9 207.667 1089.03 207C1089.7 204.733 1090.23 202.8 1090.63 201.2C1091.17 199.467 1091.7 197.667 1092.23 195.8C1092.77 193.8 1093.37 191.467 1094.03 188.8C1094.3 187.867 1094.57 186.867 1094.83 185.8C1095.23 184.733 1095.63 183.533 1096.03 182.2C1096.43 180.733 1096.9 179 1097.43 177C1097.97 174.867 1098.63 172.333 1099.43 169.4C1100.5 165.267 1101.83 161.6 1103.43 158.4C1105.03 155.2 1106.77 152.733 1108.63 151C1110.63 149.133 1112.63 148.267 1114.63 148.4C1116.63 148.4 1118.57 149.533 1120.43 151.8C1122.3 154.067 1123.97 157.667 1125.43 162.6C1126.23 165.133 1126.9 167.267 1127.43 169C1127.97 170.6 1128.43 172.067 1128.83 173.4C1129.23 174.6 1129.57 175.733 1129.83 176.8C1130.23 177.733 1130.63 178.8 1131.03 180C1132.23 183.6 1133.37 187.4 1134.43 191.4C1135.5 195.267 1136.5 198.933 1137.43 202.4C1138.37 205.733 1139.1 208.533 1139.63 210.8C1139.9 211.733 1140.1 212.533 1140.23 213.2C1140.5 213.867 1140.7 214.467 1140.83 215C1140.97 215.533 1141.03 216 1141.03 216.4C1141.17 216.667 1141.3 217 1141.43 217.4C1141.57 217.933 1141.63 218.4 1141.63 218.8C1141.77 219.2 1141.83 219.467 1141.83 219.6C1141.83 219.733 1141.77 219.8 1141.63 219.8C1141.63 219.667 1141.63 219.533 1141.63 219.4C1141.63 219.267 1141.63 219 1141.63 218.6C1141.77 218.2 1141.9 217.8 1142.03 217.4C1142.17 217.133 1142.3 216.8 1142.43 216.4C1142.57 216 1142.7 215.6 1142.83 215.2C1142.97 214.667 1143.1 214.133 1143.23 213.6C1143.5 212.933 1143.77 212.2 1144.03 211.4C1144.3 210.6 1144.63 209.667 1145.03 208.6C1146.23 205.133 1147.37 201.8 1148.43 198.6C1149.63 195.267 1150.77 191.933 1151.83 188.6C1153.03 185.267 1154.23 181.667 1155.43 177.8C1156.63 174.333 1157.97 170.333 1159.43 165.8C1160.9 161.133 1162.3 156.733 1163.63 152.6C1164.7 149.4 1166.37 147.267 1168.63 146.2C1170.9 145.133 1173.17 145 1175.43 145.8C1177.7 146.6 1179.43 148.067 1180.63 150.2C1181.83 152.333 1181.9 155 1180.83 158.2C1179.5 162.467 1177.97 166.933 1176.23 171.6C1174.63 176.267 1173.3 180.333 1172.23 183.8C1171.03 187.667 1169.83 191.533 1168.63 195.4C1167.43 199.133 1166.23 202.933 1165.03 206.8C1163.97 210.533 1162.77 214.267 1161.43 218C1160.9 219.333 1160.43 220.533 1160.03 221.6C1159.77 222.667 1159.43 223.733 1159.03 224.8C1158.77 225.867 1158.37 227.133 1157.83 228.6C1157.43 229.933 1156.83 231.6 1156.03 233.6C1154.57 237.467 1152.97 240.733 1151.23 243.4C1149.63 245.933 1147.97 247.8 1146.23 249C1144.5 250.333 1142.77 250.933 1141.03 250.8C1139.3 250.667 1137.57 249.867 1135.83 248.4C1134.23 247.067 1132.7 245.067 1131.23 242.4C1129.77 239.6 1128.43 236.2 1127.23 232.2C1126.57 229.8 1125.97 227.867 1125.43 226.4C1125.03 224.933 1124.63 223.6 1124.23 222.4C1123.97 221.2 1123.57 219.733 1123.03 218C1122.1 214.933 1120.97 210.8 1119.63 205.6C1118.3 200.4 1116.77 194.667 1115.03 188.4C1113.3 182.133 1111.37 175.867 1109.23 169.6C1108.57 167.6 1107.57 166.8 1106.23 167.2C1105.03 167.6 1103.77 168.4 1102.43 169.6C1101.23 170.8 1100.3 171.6 1099.63 172C1098.97 172.4 1098.9 171.533 1099.43 169.4C1100.5 165.267 1101.83 161.6 1103.43 158.4C1105.03 155.2 1106.77 152.733 1108.63 151C1110.63 149.133 1112.63 148.267 1114.63 148.4C1116.63 148.4 1118.57 149.533 1120.43 151.8C1122.3 154.067 1123.97 157.667 1125.43 162.6C1126.37 165.4 1126.57 167.333 1126.03 168.4C1125.63 169.333 1124.83 169.933 1123.63 170.2C1122.43 170.333 1121.23 170.733 1120.03 171.4C1118.83 171.933 1117.9 173.267 1117.23 175.4C1115.63 181.133 1114.03 186.6 1112.43 191.8C1110.83 197 1109.37 201.8 1108.03 206.2C1106.7 210.467 1105.5 214.333 1104.43 217.8C1104.03 219.267 1103.63 220.6 1103.23 221.8C1102.83 222.867 1102.37 224.2 1101.83 225.8C1101.3 227.267 1100.57 229.333 1099.63 232C1098.03 237.067 1096.3 241.133 1094.43 244.2C1092.57 247.133 1090.63 249.067 1088.63 250C1086.77 251.067 1084.83 251.067 1082.83 250C1080.97 249.067 1079.1 247.133 1077.23 244.2C1075.37 241.267 1073.57 237.467 1071.83 232.8C1070.9 230 1070.1 227.8 1069.43 226.2C1068.9 224.6 1068.43 223.2 1068.03 222C1067.63 220.667 1067.1 219.133 1066.43 217.4C1064.43 211.8 1062.5 206.067 1060.63 200.2C1058.9 194.2 1057.17 188.733 1055.43 183.8C1054.1 179.533 1052.7 175.267 1051.23 171C1049.77 166.733 1048.3 162.533 1046.83 158.4C1045.63 155.2 1045.57 152.533 1046.63 150.4C1047.83 148.133 1049.5 146.6 1051.63 145.8C1053.9 145 1056.17 145.133 1058.43 146.2C1060.7 147.133 1062.43 149.2 1063.63 152.4Z" fill="#191919"/>
</svg>
