<svg width="160" height="160" viewBox="0 0 160 160" fill="none" xmlns="http://www.w3.org/2000/svg">
<circle cx="80" cy="80" r="80" fill="#004D40"/>
<path d="M57.4545 115V45.1818H81.0455C86.5227 45.1818 91 46.1705 94.4773 48.1477C97.9773 50.1023 100.568 52.75 102.25 56.0909C103.932 59.4318 104.773 63.1591 104.773 67.2727C104.773 71.3864 103.932 75.125 102.25 78.4886C100.591 81.8523 98.0227 84.5341 94.5455 86.5341C91.0682 88.5114 86.6136 89.5 81.1818 89.5H64.2727V82H80.9091C84.6591 82 87.6705 81.3523 89.9432 80.0568C92.2159 78.7614 93.8636 77.0114 94.8864 74.8068C95.9318 72.5795 96.4545 70.0682 96.4545 67.2727C96.4545 64.4773 95.9318 61.9773 94.8864 59.7727C93.8636 57.5682 92.2045 55.8409 89.9091 54.5909C87.6136 53.3182 84.5682 52.6818 80.7727 52.6818H65.9091V115H57.4545Z" fill="white"/>
</svg>
