<svg width="32" height="31" viewBox="0 0 32 31" fill="none" xmlns="http://www.w3.org/2000/svg">
<path d="M13.8744 0.0384023C6.22366 0.0384023 0 6.06757 0 13.4792C0 20.8909 6.22366 26.92 13.8744 26.92C16.2132 26.92 18.5124 26.3824 20.4548 25.3455C20.6104 25.5269 20.7829 25.694 20.9702 25.8448L24.9343 29.685C25.3003 30.084 25.7467 30.4063 26.2459 30.6322C26.7452 30.858 27.2869 30.9826 27.8376 30.9983C28.3884 31.014 28.9367 30.9205 29.4488 30.7235C29.9609 30.5265 30.4261 30.2302 30.8157 29.8527C31.2053 29.4753 31.5112 29.0247 31.7146 28.5285C31.9179 28.0324 32.0145 27.5013 31.9983 26.9677C31.982 26.4341 31.8534 25.9094 31.6203 25.4257C31.3872 24.9421 31.0545 24.5097 30.6426 24.1551L26.6785 20.3148C26.4854 20.1277 26.2728 19.9604 26.0442 19.8156C27.1145 17.9339 27.7884 15.745 27.7884 13.4408C27.7884 6.02917 21.5648 0 13.914 0L13.8744 0.0384023ZM13.8744 3.87864C19.3845 3.87864 23.7847 8.14129 23.7847 13.4792C23.7847 16.0138 22.8333 18.3563 21.1684 20.0844C21.1287 20.1228 21.0891 20.1612 21.0494 20.1996C20.8622 20.3504 20.6897 20.5175 20.5341 20.6989C18.7899 22.235 16.4114 23.1182 13.8348 23.1182C8.32464 23.1182 3.92447 18.8555 3.92447 13.5176C3.92447 8.1797 8.32464 3.91704 13.8348 3.91704L13.8744 3.87864Z" fill="#687480"/>
</svg>
