<svg width="94" height="94" viewBox="0 0 94 94" fill="none" xmlns="http://www.w3.org/2000/svg">
<circle cx="47" cy="47" r="47" fill="#0071EE"/>
<path d="M48.7678 25.2322C47.7915 24.2559 46.2085 24.2559 45.2322 25.2322L29.3223 41.1421C28.346 42.1184 28.346 43.7014 29.3223 44.6777C30.2986 45.654 31.8816 45.654 32.8579 44.6777L47 30.5355L61.1421 44.6777C62.1184 45.654 63.7014 45.654 64.6777 44.6777C65.654 43.7014 65.654 42.1184 64.6777 41.1421L48.7678 25.2322ZM47 64L49.5 64L49.5 27L47 27L44.5 27L44.5 64L47 64Z" fill="white"/>
<path d="M50 63.5C50 64.8807 48.6569 66 47 66C45.3431 66 44 64.8807 44 63.5C44 62.1193 45.3431 61 47 61C48.6569 61 50 62.1193 50 63.5Z" fill="white"/>
</svg>
